<?xml version="1.0" encoding="UTF-8"?>
<svg xmlns="http://www.w3.org/2000/svg" viewBox="0 -96.595 271.19 271.19" role="img" aria-label="Dispo">
  <path fill="#f1eee7" d="M35.8,13.64s4.18,3.41,5.98,8.47h-1.95c-.27-.41-4.16-8.01-17.19-8.01C2.95,14.1,0,31.99,0,39.05c0,22.3,17.38,24.76,22.55,24.76,12.85,0,17.04-7.66,17.27-8.01h1.96s-1.47,3.75-1.47,6.81h16.84V0h-21.35v13.64ZM29.27,49.17c-4.76,0-7.46-3.73-7.46-10.22,0-9.94,5.53-10.31,7.46-10.31,3.87,0,6.99,3.15,6.99,10.31,0,9.7-5.25,10.22-6.99,10.22ZM62.31,15.39h21.26v47.22h-21.26V15.39ZM140.63,46.69c0,12.08-10.82,17.24-27.52,17.12-18-.13-25.06-6.09-25.95-15.74h19.88c.58,2.79,2.89,4.69,7.27,4.69,3.31,0,5.06-1.16,5.06-3.04s-1.02-2.92-5.61-3.5l-9.11-1.01c-8.78-1.05-16.84-4.89-16.84-14.73s8.83-16.38,25.95-16.38,24.36,6.05,24.94,15h-19.7c-.36-2.64-2.55-3.96-5.98-3.96s-4.79,1.33-4.79,2.58c0,1.65,1.2,2.69,5.34,3.22l8.47,1.01c14.53,1.72,18.59,7.54,18.59,14.73ZM178.28,14.2c-12.84,0-17,7.66-17.24,8.01h-1.91s1.47-3.76,1.47-6.81h-16.93v62.61h21.35v-13.64s-4.09-3.4-5.89-8.47h1.86c.73,1.12,4.73,8.01,17.19,8.01,21.07,0,22.64-18.34,22.64-24.94,0-16.77-9.15-24.76-22.55-24.76ZM171.74,49.35c-6.24,0-7.09-6.4-7.09-10.31,0-9.62,4.91-10.22,7.09-10.22,5.07,0,7.27,4.23,7.27,10.22,0,10-5.47,10.31-7.27,10.31ZM232.12,14.1c-22.96,0-28.53,14.55-28.53,24.94,0,22.38,20.67,24.76,28.53,24.76,26.2,0,28.44-18.27,28.44-24.76,0-22.69-20.18-24.94-28.44-24.94ZM232.21,49.54c-5.51,0-7.73-6.83-7.73-10.58,0-9.73,5.38-10.68,7.73-10.68,4.93,0,7.45,4.25,7.45,10.68,0,10.28-5.75,10.58-7.45,10.58Z"/>
</svg>
